<svg version="1" xmlns="http://www.w3.org/2000/svg" width="524" height="524" viewBox="0 0 393.000000 393.000000"><path d="M179 29.7c-39.3 2.1-77.1 11-113 26.4-16.4 7-33.5 16.4-33.4 18.2.1 1.4 35.6 63 37.5 65.1.4.5 5.7-1.7 11.8-4.8 38.8-19.8 78.3-28.7 121.6-27.3 38.4 1.3 72.2 10.1 105.8 27.5 6.3 3.2 11.1 5.2 11.6 4.6 1.2-1.3 38.1-65 38.1-65.7 0-1-20.3-11.6-32.4-16.9-14.5-6.5-43-16-57.8-19.2-29.8-6.7-61.8-9.5-89.8-7.9z"/><path d="M117 130.6c-30 8.9-61 27.6-87.9 53.2l-8.4 8 3.6 3.2 3.7 3.2 11-10.1c22.3-20.5 41-31.8 41-24.8 0 .8-3.8 7.1-8.5 14.1-8.8 13.1-11.6 19.6-9.4 22.2 2.4 2.9 7.5 1.5 23.6-6.5 39-19.5 86.5-33.8 100.3-30.1 6.9 1.9 5.1 3.7-12.5 12.5-17.1 8.5-30.8 16.6-47 27.7-15.2 10.4-14.1 9.1-11.7 13 1.1 1.8 4.5 7.7 7.6 13l5.6 9.7 6.6-3c15.3-6.9 46.7-14.1 62.4-14.3 11.3-.1 15 1.5 15 6.3 0 7.3-18.3 25.5-48.2 47.9-8 6-9.6 7.6-8.9 9 3 5.5 39.4 67.9 40.1 68.6 1.8 1.8 41.4-48.8 58.2-74.3 4.8-7.4 11.2-18.2 14.2-24 13.2-25.9 11.5-36.1-7.5-44.4-16.2-7.2-41.2-9-79-5.6-16.6 1.5-19.3-.3-12.2-8.2 7.1-7.9 30.4-17 67.1-26.3 21.2-5.4 22.9-6 26-8.8 6.5-6.2-1.4-13.7-17.6-16.9-8.2-1.5-44.1-.6-57.5 1.5-26.5 4.2-52 11.9-78.2 23.5-8.8 3.8-16.3 6.7-16.7 6.5-3.8-2.4 9.3-15.5 27.1-27.1 6.4-4.2 13.2-8.7 15.2-10 8.2-5.4 6.5-11.3-3.3-11.2-2.9 0-9.1 1.1-13.8 2.5z"/></svg>